<svg version="1.1" viewBox="0 0 215.6 198.1" xml:space="preserve" xmlns="http://www.w3.org/2000/svg" xmlns:xlink="http://www.w3.org/1999/xlink"><defs><style>.cls-1{fill:#fff;}.cls-2,.cls-5{fill:none;}.cls-3{fill:#b88265;}.cls-4{fill:#9f8c6f;}.cls-5{stroke:#cdcdcd;stroke-miterlimit:10;stroke-width:3px;}.cls-6{fill:#e1e3e2;}.cls-7{fill:#cdcdcd;}</style><linearGradient id="b" x1="27.95" x2="56.6" y1="-56.27" y2="-58.23" gradientUnits="userSpaceOnUse"><stop stop-color="#894610" offset="0"/><stop stop-color="#b27748" offset=".2695"/><stop stop-color="#c8834f" offset=".8643"/></linearGradient><linearGradient id="a" x1="42.3" x2="80.92" y1="-81.58" y2="-69.7" gradientUnits="userSpaceOnUse"><stop stop-color="#a74e1e" offset=".1004"/><stop stop-color="#e59460" offset=".5939"/><stop stop-color="#aa4f20" offset=".8727"/></linearGradient></defs><rect class="cls-1" width="215.6" height="198.1"/><rect class="cls-2" x=".29" y=".38" width="215" height="197.4"/><g transform="matrix(1.064 0 0 1.064 86.02 169.5)"><ellipse transform="rotate(-1.206)" cx="38.18" cy="-20.32" rx="34.22" ry="12.98" fill="#cf9975"/><ellipse transform="rotate(-17.19)" cx="61.1" cy="-74.06" rx="21.17" ry="4.713" fill="url(#a)"/><path d="m56.6-94.12a4.713 21.17 72.81 0 1-0.125 0.2598 4.713 21.17 72.81 0 1-0.2266 0.3477 4.713 21.17 72.81 0 1-0.293 0.3633 4.713 21.17 72.81 0 1-0.3594 0.377 4.713 21.17 72.81 0 1-0.4238 0.3926 4.713 21.17 72.81 0 1-0.4863 0.4023 4.713 21.17 72.81 0 1-0.5488 0.4141 4.713 21.17 72.81 0 1-0.6074 0.4238 4.713 21.17 72.81 0 1-0.666 0.4316 4.713 21.17 72.81 0 1-0.7227 0.4375 4.713 21.17 72.81 0 1-0.7734 0.4414 4.713 21.17 72.81 0 1-0.8242 0.4473 4.713 21.17 72.81 0 1-0.873 0.4473 4.713 21.17 72.81 0 1-0.918 0.4492 4.713 21.17 72.81 0 1-0.959 0.4473 4.713 21.17 72.81 0 1-0.9961 0.4434 4.713 21.17 72.81 0 1-1.031 0.4414 4.713 21.17 72.81 0 1-1.064 0.4336 4.713 21.17 72.81 0 1-1.09 0.4297 4.713 21.17 72.81 0 1-1.115 0.418 4.713 21.17 72.81 0 1-1.137 0.4102 4.713 21.17 72.81 0 1-1.152 0.3984 4.713 21.17 72.81 0 1-1.164 0.3848 4.713 21.17 72.81 0 1-1.174 0.3711 4.713 21.17 72.81 0 1-3.531 1.02 4.713 21.17 72.81 0 1-3.469 0.8496 4.713 21.17 72.81 0 1-3.297 0.6562 4.713 21.17 72.81 0 1-3.027 0.4434 4.713 21.17 72.81 0 1-2.664 0.2168 4.713 21.17 72.81 0 1-2.221-0.01758 4.713 21.17 72.81 0 1-1.709-0.25 4.713 21.17 72.81 0 1-1.146-0.4746 4.713 21.17 72.81 0 1-0.5508-0.6875l0.248 1.814c-0.5422 0.2078-1.319 0.7904-1.529 0.3711-0.3056-0.61-0.6535-1.212-1.043-1.807-0.3894-0.5946-0.8215-1.182-1.299-1.764-0.4773-0.5821-0.9992-1.158-1.568-1.73s-1.185-1.14-1.85-1.705c-0.6649-0.5651-1.38-1.129-2.145-1.689-0.7647-0.5608-1.579-1.12-2.447-1.68-0.6757-0.4351-0.8551-0.5585-1.596-0.9941l-0.5566-0.3105-3.861 5.225c0.9074 0.523 1.771 1.033 2.568 1.525 0.8511 0.5249 1.641 1.032 2.373 1.529 0.7324 0.4968 1.407 0.9829 2.027 1.459s1.185 0.9436 1.699 1.406c0.5139 0.4626 0.9766 0.9205 1.391 1.377 0.414 0.4565 0.7792 0.9115 1.1 1.369 0.3204 0.4576 0.5951 0.9167 0.8281 1.383s0.4242 0.938 0.5762 1.42c0.152 0.4819 0.2646 0.9735 0.3418 1.479 0.0772 0.505 0.1183 1.023 0.127 1.559 9e-3 0.5354-0.01466 1.089-0.06836 1.662-0.0536 0.5732-0.1365 1.167-0.2461 1.785-0.1096 0.6182-0.245 1.261-0.4043 1.932s-0.3422 1.367-0.5449 2.098c-0.4055 1.46-0.8919 3.048-1.434 4.791-0.1244 0.4004-0.2317 0.7984-0.3223 1.191-0.0905 0.393-0.1644 0.7823-0.2227 1.168-0.0582 0.3857-0.1014 0.7661-0.1289 1.145-0.0275 0.3784-0.04056 0.7537-0.03906 1.125 2e-3 0.3713 0.01777 0.7392 0.04687 1.104 0.0291 0.3643 0.072 0.7266 0.127 1.084 0.055 0.3574 0.1219 0.7099 0.2012 1.061 0.0793 0.3506 0.1715 0.699 0.2734 1.043 0.2039 0.6879 0.4513 1.362 0.7363 2.023 0.285 0.6619 0.6076 1.311 0.9609 1.947s0.7376 1.263 1.146 1.875c0.4089 0.6124 0.8414 1.212 1.293 1.801 0.4516 0.5889 0.9209 1.166 1.402 1.732 0.4814 0.5663 0.9742 1.121 1.473 1.666 0.9969 1.089 2.016 2.137 3.004 3.145s1.947 1.975 2.824 2.908c0.4385 0.4664 0.8566 0.924 1.248 1.373 0.0416 0.04768 0.0743 0.09313 0.1152 0.1406l0.6855 5.021a12.9 5.168 0 0 0 0.3223 1.15 12.9 5.168 0 0 0 0.9551 1.092 12.9 5.168 0 0 0 1.537 0.9805 12.9 5.168 0 0 0 2.041 0.8184 12.9 5.168 0 0 0 2.447 0.6152 12.9 5.168 0 0 0 2.727 0.3828 12.9 5.168 0 0 0 2.871 0.1289 12.9 5.168 0 0 0 2.869-0.1289 12.9 5.168 0 0 0 2.727-0.3828 12.9 5.168 0 0 0 2.447-0.6152 12.9 5.168 0 0 0 2.041-0.8184 12.9 5.168 0 0 0 1.537-0.9805 12.9 5.168 0 0 0 0.9551-1.092 12.9 5.168 0 0 0 0.3223-1.15 12.9 5.168 0 0 0 0-2e-3 12.9 5.168 0 0 0 0-2e-3 12.9 5.168 0 0 0 0-2e-3 12.9 5.168 0 0 0 0-2e-3zm-39.04 21.14 4.373 32.04c-0.4949-0.502-0.9932-0.9918-1.479-1.512-0.4465-0.4783-0.8856-0.9662-1.312-1.463-0.4269-0.4967-0.8402-1.003-1.236-1.521-0.3962-0.5182-0.7746-1.047-1.129-1.59-0.3543-0.5427-0.6849-1.1-0.9863-1.67-0.3014-0.5704-0.5731-1.155-0.8105-1.756-0.2374-0.6011-0.4412-1.219-0.6035-1.854-0.0812-0.3174-0.1526-0.6384-0.2129-0.9648-0.0603-0.3265-0.1084-0.6583-0.1465-0.9941-0.03809-0.3359-0.06557-0.6758-0.08007-1.021s-0.01626-0.6969-0.0059-1.053c0.0105-0.3559 0.03341-0.7176 0.07031-1.084s0.0876-0.7379 0.1523-1.115c0.0647-0.3774 0.1444-0.7597 0.2383-1.148 0.0939-0.3887 0.2017-0.7832 0.3262-1.184 0.2708-0.8715 0.5195-1.723 0.7422-2.555 0.2227-0.8315 0.4193-1.643 0.5898-2.438 0.1705-0.7942 0.3153-1.57 0.4297-2.33 0.1144-0.7596 0.1996-1.503 0.2539-2.23 0.0543-0.7278 0.07806-1.44 0.06836-2.139-0.0054-0.3764 0.3964-0.3884 0.7578-0.4238z" fill="url(#b)" stroke-linecap="round" stroke-width="1.89"/><path d="m-20.52-118.7 23.68 18.4 2.027 4.588-8.642 11.74-5.281-0.5868-22.4-18.14-2.294-3.574 8.802-12.64z" fill="#f1ce98"/><path d="m-27.51-114.7c-0.1509-0.1886-11.39-9.6-11.39-9.6-2.288 0.7568-3.605 2.236-3.404 4.699l12.17 8.548z" fill="#0d0906"/></g></svg>
